<svg xmlns="http://www.w3.org/2000/svg" viewBox="0 0 24 24"><path d="M14.42 9.4c.03-.22.05-.45.05-.69 0-.13 0-.28-.02-.45 2-.02 3.74-1.46 3.74-3.11 0-.84-.55-1.48-.85-1.85l.2-.05a3.3 3.3 0 0 1 1.13 2.3c0 1.97-1.98 3.81-4.25 3.85m-2-6.9a1.36 1.36 0 0 0-.25-.59c0-.2.09-.4.41-.23-.17.18-.04.5-.04.5s.36-.17.29-.41c.53.13.15.84-.41.73m-.47 1.02c-.07-.3-.22-.6-.41-.83-.18-.2-.47-.45-.86-.45-.18 0-.48.08-.67.16a1.83 1.83 0 0 1-.21-.58c0-.15.24-.3.71-.3 1.03 0 1.65.47 1.65 1.25 0 .28-.11.53-.2.75m2.64 13.3c.12 0 .18.02.25.05.3.8 1.44 2.33 1.49 2.4h.03c.28-.04 1-.15 1.6-.15.07 0 .15 0 .2.05.03.04.05.1.05.2 0 .15-.06.4-.14.51-.2-.23-.55-.33-1.1-.33-.16 0-.35.05-.46.08h-.04l-.05.02.32.32c.48.48.9.9.9 1.18 0 .17-.16.39-.31.48-.03-.5-.55-1.2-1.05-1.57l-.05-.04v.18l-.02.5c0 .98-.1 1.13-.44 1.13a.62.62 0 0 1-.18-.04c.2-.23.27-.54.27-1.09v-.45c0-.22.01-.39.03-.52l.01-.08h-.05a5.46 5.46 0 0 0-.68-.06c-.48 0-.8.04-1.04.26-.15-.12-.32-.34-.32-.48 0-.2.13-.22.3-.22l.27.03c.2.03.52.07 1.16.07h.04l-.02-.03a7.78 7.78 0 0 0-1.32-2.01c.06-.24.13-.39.35-.39m-6.17 2.4-.02.03h.04c.64 0 .96-.04 1.16-.07l.27-.03c.17 0 .3.02.3.22 0 .14-.16.36-.32.48-.24-.22-.56-.26-1.04-.26-.23 0-.52.04-.68.06H8.1v.08c.03.13.05.3.05.52v.45c0 .55.07.86.26 1.1a.63.63 0 0 1-.18.03c-.34 0-.44-.15-.44-1.13l-.01-.5-.01-.18-.05.04c-.5.38-1.02 1.06-1.05 1.57-.15-.1-.31-.31-.31-.48 0-.28.42-.7.9-1.18l.32-.32-.1-.02c-.1-.03-.3-.08-.46-.08-.54 0-.88.1-1.1.33-.07-.1-.13-.36-.13-.5 0-.1.02-.17.06-.21.04-.05.12-.05.18-.05h.02c.6 0 1.31.1 1.6.15h.02c.05-.07 1.2-1.6 1.5-2.4a.6.6 0 0 1 .24-.05c.22 0 .29.15.35.39a7.76 7.76 0 0 0-1.32 2M5.33 5.55c0-1.14.84-2.04 1.13-2.3l.2.05c-.3.38-.85 1.02-.85 1.86 0 1.67 1.78 3.11 3.8 3.11a4.96 4.96 0 0 0 .02 1.14c-2.29-.01-4.3-1.86-4.3-3.86m15.31 3.51c1.03 1.62 1.83 1.6 3.04 1.6A8.65 8.65 0 0 1 21.7 8.4l-1.87-3a4.43 4.43 0 0 0-1.38-2.43c.24-.09.44-.19.56-.28-1.22 0-2.43-.62-3.1-.62-.42 0-.7.26-.7.6.03.37.42.76 1.14.76.16 0 .37-.02.6-.06.38.54.7 1.03.7 1.73 0 1.3-1.57 2.33-3.15 2.33l-.27-.01c-.14-.33-.62-.87-.62-1.5 0-1.03.68-1.88.68-2.91 0-.65-.31-1.04-.43-1.2.2-.19.4-.4.46-.56-.12.05-.25.05-.45.05-.75 0-1.37-.2-1.97-.2-.35 0-.44.11-.44.21 0 .04 0 .08.02.1a3.05 3.05 0 0 0-.96-.16c-.74 0-1 .3-1 .57 0 .22.17.63.37.94.29-.15.63-.25.79-.25.39 0 .73.37.91.81-.26.03-.3.05-.57.05-.71 0-1.2-.26-1.3-.26 0 0-.03 0-.03.02 0 .1.2.37.6.51.53.2 1.31.27 1.45.3 0 .02-.14.27-.29.31a6.56 6.56 0 0 1-1.49-.41c-.02 0-.03 0-.03.03 0 .27.71.88 1.35 1.11-.53.68-1.2 1.38-1.51 2.44H9.5c-1.58 0-3.14-1.01-3.14-2.32 0-.7.31-1.19.7-1.73.23.04.43.06.6.06.71 0 1.1-.38 1.13-.76 0-.34-.28-.6-.7-.6-.67 0-1.88.62-3.1.62.12.1.32.2.56.28A4.4 4.4 0 0 0 4.17 5.4l-1.87 3c-.3.5-.98 1.48-1.98 2.25 1.21 0 2.02.02 3.04-1.6l.96-1.53c.07.2.16.4.26.58l-1.9 3.06c-.33.5-.98 1.48-1.99 2.25 1.21 0 2.01.03 3.04-1.6L5.37 9.2c.12.13.25.26.39.38l-2.32 3.7a8.35 8.35 0 0 1-1.98 2.26c1.21 0 2.01.03 3.04-1.6l2.25-3.6.46.26-2.75 4.42a8.6 8.6 0 0 1-1.98 2.25c1.2 0 2.01.02 3.03-1.6l2.84-4.54.51.18-3.2 5.14c-.32.5-.99 1.48-1.98 2.25 1.2 0 2.01.02 3.03-1.6l3.42-5.46.1.01c.1.3.16.58.16.85 0 1.72-1.13 3.24-2.48 4.41a2.65 2.65 0 0 0 .96.01c-.31.72-.98 1.64-1.32 2.11a9.88 9.88 0 0 0-1.51-.14c-.45 0-.5.26-.5.5 0 .4.2.71.41.89.08-.2.25-.48 1.06-.48h.08c-.23.27-.98.87-.98 1.36 0 .32.35.8.82.8-.03-.1-.03-.2-.03-.27 0-.39.35-.85.65-1.17v.2c0 .93.08 1.35.67 1.35.29 0 .49-.15.56-.2-.39-.36-.4-.63-.4-1.16a115.9 115.9 0 0 1-.02-.84c.2-.03.3-.03.46-.03 0 0 .84-.07 1.04.37.23-.2.56-.5.56-.83 0-.21-.1-.46-.54-.46-.16 0-.68.1-1.1.1.11-.25.62-1 1.07-1.55.07.2.17.44.4.63.04-.36.25-1.47.8-2.12.06.44.15.89.15 1.84 0 2.32-.56 4.02-1.74 4.35a1 1 0 0 0 .82.5c.43 0 .66-.48.9-.94.13.34.47 1.17.82 1.17s.7-.83.82-1.17c.24.46.47.95.9.95a1 1 0 0 0 .82-.51c-1.18-.33-1.74-2.03-1.74-4.35 0-.95.09-1.4.15-1.84.55.65.76 1.76.8 2.12.23-.2.33-.42.4-.63.45.54.96 1.3 1.08 1.55-.43 0-.95-.1-1.11-.1-.43 0-.54.25-.54.46 0 .33.33.62.56.83.2-.44 1.04-.37 1.04-.37.17 0 .25 0 .46.03-.02.11-.02.27-.02.4v.44c0 .53-.01.8-.4 1.16.07.05.27.2.56.2.6 0 .68-.42.68-1.35v-.2c.29.32.64.78.64 1.17 0 .08 0 .17-.03.28.47 0 .82-.49.82-.81 0-.49-.75-1.09-.99-1.35l.09-.01c.81 0 .98.27 1.06.48.22-.18.4-.5.4-.9 0-.23-.04-.49-.49-.49a9.9 9.9 0 0 0-1.5.14c-.35-.47-1.02-1.4-1.33-2.1.12.02.3.03.58.03.14 0 .3-.01.38-.05-1.35-1.17-2.48-2.69-2.48-4.4 0-.28.06-.56.16-.86l.1-.01 3.42 5.47c1.02 1.61 1.82 1.59 3.03 1.59a8.65 8.65 0 0 1-1.97-2.25l-3.21-5.14.51-.18 2.84 4.55c1.02 1.61 1.82 1.59 3.03 1.59A8.6 8.6 0 0 1 19.54 15l-2.75-4.42.46-.27 2.25 3.62c1.03 1.62 1.83 1.59 3.04 1.59a8.58 8.58 0 0 1-1.98-2.25l-2.32-3.71.4-.38 1.63 2.63c1.03 1.62 1.83 1.59 3.04 1.59a8.62 8.62 0 0 1-1.98-2.25l-1.9-3.06c.1-.19.18-.38.25-.58l.96 1.53z"/></svg>
