<svg xmlns="http://www.w3.org/2000/svg" viewBox="0 0 24 24"><path d="M12 2.23c-5.536.017-10.01 4.519-9.992 10.055a10.024 10.024 0 0 0 6.826 9.469c.5.092.683-.215.683-.486l-.012-1.7c-2.786.6-3.376-1.341-3.376-1.341a2.646 2.646 0 0 0-1.113-1.464c-.91-.621.068-.61.068-.61a2.13 2.13 0 0 1 1.537 1.034 2.129 2.129 0 0 0 2.915.83c.047-.508.271-.982.633-1.341-2.226-.256-4.563-1.114-4.563-4.956a3.849 3.849 0 0 1 1.033-2.683 3.579 3.579 0 0 1 .1-2.65s.84-.267 2.753 1.027a9.475 9.475 0 0 1 5.018 0c1.913-1.294 2.75-1.027 2.75-1.027.372.838.408 1.786.1 2.65a3.874 3.874 0 0 1 1.03 2.683c0 3.85-2.342 4.692-4.574 4.944a2.4 2.4 0 0 1 .683 1.857l-.012 2.749c0 .27.178.578.689.48 5.244-1.773 8.058-7.462 6.285-12.707a10.024 10.024 0 0 0-9.46-6.813z"/></svg>
